<svg id="Object" xmlns="http://www.w3.org/2000/svg" xmlns:xlink="http://www.w3.org/1999/xlink" viewBox="0 0 500 500"><defs><style>.cls-1{fill:url(#linear-gradient);}.cls-2{fill:url(#linear-gradient-2);}</style><linearGradient id="linear-gradient" x1="-22.62" y1="44.24" x2="163.75" y2="127.36" gradientTransform="matrix(1, 0, 0, -1, 31.87, 200.3)" gradientUnits="userSpaceOnUse"><stop offset="0" stop-color="#ec1b69"/><stop offset="1" stop-color="#f05b57"/></linearGradient><linearGradient id="linear-gradient-2" x1="-455.25" y1="65.49" x2="-153.71" y2="346.72" gradientTransform="matrix(-1, 0, 0, 1, 66.64, 0)" xlink:href="#linear-gradient"/></defs><title>logo</title><g id="Logogram"><path class="cls-1" d="M55.09,212.45C25.44,196.87,7.35,165.56,7.36,132.06V49.26A25.21,25.21,0,0,1,32.57,24H98.28c60.66,0,107.3,40.41,111,93.88C214.59,194.39,134.78,254.31,55.09,212.45Z"/><path class="cls-2" d="M186.47,473.29H265.3a102.21,102.21,0,0,0,95.46-65.68L492.16,64.23A29.6,29.6,0,0,0,464.51,24H385.67a102.23,102.23,0,0,0-95.46,65.68L158.82,433.1A29.6,29.6,0,0,0,186.47,473.29Z"/></g></svg>